<svg xmlns="http://www.w3.org/2000/svg" viewBox="0 0 640 440" preserveAspectRatio="xMidYMid meet">
  <defs>
    <linearGradient id="sun" x1="0" y1="0" x2="1" y2="1">
      <stop offset="0%" stop-color="#d4af37" stop-opacity="0.85"/>
      <stop offset="100%" stop-color="#f9e5aa" stop-opacity="0.2"/>
    </linearGradient>
  </defs>
  <rect width="640" height="440" rx="36" fill="#111"/>
  <rect x="28" y="28" width="584" height="384" rx="30" fill="#080808"/>
  <path d="M112 320C150 294 214 258 304 274s158 46 218 34" fill="none" stroke="#292929" stroke-width="20" stroke-linecap="round"/>
  <circle cx="220" cy="210" r="14" fill="#d4af37"/>
  <circle cx="290" cy="170" r="10" fill="#f8f5f1" opacity="0.8"/>
  <circle cx="392" cy="234" r="12" fill="#d4af37"/>
  <path d="M180 115c72-34 148-20 204 16" stroke="#d4af37" stroke-width="6" fill="none" opacity="0.8"/>
  <path d="M462 88c-18 36-56 64-108 80" stroke="#d4af37" stroke-width="5" fill="none" opacity="0.72"/>
  <rect x="110" y="102" width="88" height="48" rx="18" fill="#1a1a1a" stroke="#272727" stroke-width="2"/>
  <rect x="390" y="86" width="110" height="40" rx="20" fill="#1a1a1a" stroke="#272727" stroke-width="2"/>
  <path d="M132 374L224 310" stroke="#d4af37" stroke-width="6" stroke-linecap="round" opacity="0.7"/>
</svg>
